<svg id="Layer_1" data-name="Layer 1" xmlns="http://www.w3.org/2000/svg" viewBox="0 0 206.19 190.14"><defs><style>.cls-1{fill:#cea62b;}</style></defs><title>Africa</title><path class="cls-1" d="M101.48,152.47a59.82,59.82,0,0,1-33.65-13.79,60.66,60.66,0,0,0,11.55,7.6A59.67,59.67,0,0,1,71,141.11a54.92,54.92,0,0,1-7.45-6.58L65,135.89c.53.51,1.14,1,1.71,1.55a32.63,32.63,0,0,0,2.74,2.21,60.83,60.83,0,0,0,22.46,11.12,59.43,59.43,0,0,0,24.77,1.11,39.6,39.6,0,0,1-8.27.9C105.94,152.82,103.78,152.63,101.48,152.47Z"/><path class="cls-1" d="M52.91,119.24c.79,1.5,1.54,3,2.4,4.35C54.39,122.12,53.61,120.6,52.91,119.24Z"/><path class="cls-1" d="M163.68,80.3c-.43-1.85-1-3.69-1.51-5.44A53.83,53.83,0,0,1,163.68,80.3Z"/><path class="cls-1" d="M123.21,149.58c1-.28,1.9-.66,2.87-1a59.65,59.65,0,0,0,20-11.8,61.68,61.68,0,0,1-10.7,7.72A55.73,55.73,0,0,1,123.21,149.58Z"/><path class="cls-1" d="M115.07,151.14a56.33,56.33,0,0,1-22.91-1.27A57.27,57.27,0,0,0,115.07,151.14Z"/><path class="cls-1" d="M126.72,39.35s-.12,0-.32-.06l-.58-.18A57.85,57.85,0,0,0,117,36.58l2.2.41c1.64.43,2.63.7,3.64,1S124.94,38.71,126.72,39.35Z"/><path class="cls-1" d="M164.1,82.37l.05.2c.12.64.25,1.27.33,1.9l0,.23C164.4,83.93,164.25,83.15,164.1,82.37Z"/><path class="cls-1" d="M130.32,40.86c0,.07.07.13.3.28-1.56-.75-3.14-1.43-4.76-2l.54.17C127.49,39.63,129.12,40.39,130.32,40.86Z"/><path class="cls-1" d="M157.57,68c.47,1,1,1.85,1.19,2.31a65.58,65.58,0,0,1,2.78,8.61c.13.51.4,1.54.67,2.57.08.62.17,1.28.26,2a57.53,57.53,0,0,0-8-21.06c.56.88,1.07,1.8,1.63,2.71S157.09,67,157.57,68Z"/><path class="cls-1" d="M53.57,117.26a56.65,56.65,0,0,1-2.8-7.24,60.51,60.51,0,0,1-1.8-7.83,64.18,64.18,0,0,1-.48-15.58,55.7,55.7,0,0,0-.39,9.14,63.83,63.83,0,0,0,1,9c1.1,5.54,2.72,9.68,2.87,10.53s-1.55-2.76-2.82-8a62,62,0,0,1-1.42-8.45,68,68,0,0,1-.23-8l-.12,2.4c.08-1.2.08-2.4.13-3.47a77,77,0,0,0-.12,8.43c-.08-.72-.19-1.43-.25-2.15A54.09,54.09,0,0,0,48.72,108a71.39,71.39,0,0,0,3.92,11.39A62.19,62.19,0,0,1,47,95.52a61.46,61.46,0,0,1,1-13.37,62.13,62.13,0,0,1,4.14-13.27A61.17,61.17,0,0,1,59.4,56.66a60.11,60.11,0,0,1,50.43-23.24,59.38,59.38,0,0,1,14.41,2.45,61,61,0,0,1,24.1,13.73,55.52,55.52,0,0,1,5.27,5.79,63.81,63.81,0,0,1,11.26,22.47,61.57,61.57,0,0,1,2.06,15.37,59.53,59.53,0,0,1-8.83,31.25,60.8,60.8,0,0,1-24.75,22.64c-1,.51-2.23,1-3.23,1.44s-1.85.65-2.21.74-.26,0,.59-.41l1.88-.84c.82-.42,1.88-.87,3.15-1.55a63.33,63.33,0,0,0,11.8-8A62.4,62.4,0,0,0,155,127.91a27.12,27.12,0,0,1-2.09,2.85c-.95,1.22-2.09,2.46-2.77,3.27a56,56,0,0,0,6.26-7.79,58.76,58.76,0,0,0,4.81-8.66,61.6,61.6,0,0,1-7.11,12,60.26,60.26,0,0,0,12.33-34.42c.05-2.32.14-4.51,0-6.93a39.85,39.85,0,0,0-1.28-8.27,59.72,59.72,0,0,1,0,24.94A61,61,0,0,1,155,127.91l0-.07a58.79,58.79,0,0,1-15.52,15c.95-.62,1.87-1.3,2.76-2s1.72-1.35,2.5-2a60.81,60.81,0,0,1-13.38,8.33,59.08,59.08,0,0,1-15,4.61,60.81,60.81,0,0,0,21-8.07,59.78,59.78,0,0,0,26.75-36.6,58.73,58.73,0,0,0,1.1-22.59,67.6,67.6,0,0,1,.29,13.73,53.49,53.49,0,0,1-2.67,12.64,59.54,59.54,0,0,0-1.48-40.35c.4,1,.79,1.89,1.13,2.85a56.52,56.52,0,0,0-5.65-12A60.21,60.21,0,0,0,148.64,51c-.55-.55-1.07-1.12-1.65-1.64.57.51,1.1,1.09,1.65,1.64a59.72,59.72,0,0,1,12.77,19.55,67.23,67.23,0,0,0-5.5-10.4,64.39,64.39,0,0,1,4.41,8.31,57.24,57.24,0,0,1,4.16,13,57.11,57.11,0,0,0-7.36-18.79,59.44,59.44,0,0,1,8.11,27.34,58.14,58.14,0,0,0-2.87-15.37A59.39,59.39,0,0,0,148.92,52c.24.23.47.49.7.74-.45-.51-.94-1-1.42-1.46a58.38,58.38,0,0,0-8-6.8A52.28,52.28,0,0,0,132,39.9l-1.42-.67c.91.4,1.37.55-.36-.26a59.73,59.73,0,0,0-25.68-5.09,49.18,49.18,0,0,0-9.29,1,10.67,10.67,0,0,0-1.89.41c-.75.2-1.52.35-2.26.58-.92.27-1.84.51-2.74.81s-1.79.62-2.66,1l2.66-.93c.9-.3,1.82-.55,2.74-.83.68-.21,1.38-.34,2.06-.52-.46.15-1,.28-2,.56A58.66,58.66,0,0,1,111,34.19a60.19,60.19,0,0,1,19.62,5l-2.29-.89c1.25.5,2.5,1,3.71,1.56a58.61,58.61,0,0,1,11.19,7c-1-.81-2-1.49-2.93-2.09a59.53,59.53,0,0,1,22.09,29.89,58.61,58.61,0,0,1,.37,34.73,56.72,56.72,0,0,0,2.5-19.36,59.91,59.91,0,0,1-.85,13.37,58.71,58.71,0,0,1-3.88,12.82,58,58,0,0,1-15.8,21.37l1.86-1.79c.64-.63,1.25-1.32,1.85-2s1.12-1.3,1.61-1.87a17.45,17.45,0,0,0,1.15-1.51c-.09.1-4,4.26-1.78,1.78a60.78,60.78,0,0,0,8.69-12.76,38.16,38.16,0,0,0,3.49-9.46c0-.22-.21.4-.58,1.39s-1,2.32-1.57,3.52a27.18,27.18,0,0,1-1.49,2.83c-.32.54-.37.54.07-.43a58.85,58.85,0,0,0,4.79-16.13c.18-1,.25-2,.38-3s.15-2.08.23-3.14c0-.27,0-.72,0-1.28a57.92,57.92,0,0,0-.83-10.54,59.78,59.78,0,0,0-1.86-7.71c-.46-1.39-.91-2.77-1.47-4.1-.25-.72-.47-1.33-.65-1.81-.43-.81-.8-1.65-1.25-2.45a56.54,56.54,0,0,0-6.14-9.74,52.75,52.75,0,0,0-4.11-4.82s.22.32-.08,0a63,63,0,0,0-5.31-4.77,59.58,59.58,0,0,0-5.86-4c-.81-.53-1.61-1-2.37-1.43s-1.49-.85-2.18-1.22a74.65,74.65,0,0,0-10.83-3.77,56,56,0,0,0-13.66-1.78h0A55.66,55.66,0,0,0,94.3,37l-2,.37c-1,.29-2.06.63-2.56.79a63.75,63.75,0,0,0-8.52,3.18c-.46.23-1.28.79-2.27,1.3s-1.9,1.1-2.84,1.63S74.38,45.41,73.5,46a59.27,59.27,0,0,0-5.82,4.65A57.36,57.36,0,0,0,53.27,70.9a.85.85,0,0,1-.27.32c-.24.6-.48,1.33-.74,2s-.52,1.41-.67,2c.06-.22.08-.36,0-.33-.27.91-.49,1.64-.67,2.26s-.32,1.16-.46,1.68c-.32,1-.53,2-.9,3.71l-.3,2.23c-.07.37-.1.74-.15,1.12a46.56,46.56,0,0,0-.35,12,56.35,56.35,0,0,0,2.39,12.67c.54,1.63.88,2.76,1.25,3.75S53.09,116.18,53.57,117.26Z"/><path class="cls-1" d="M115.91,36.39a58,58,0,0,0-11.9-.9A46.86,46.86,0,0,1,115.91,36.39Z"/><path class="cls-1" d="M156.57,119.94c-.41.67-.83,1.39-1.32,2.11s-1,1.52-1.52,2.29a56.89,56.89,0,0,0,9.44-28.46h0a56.12,56.12,0,0,1-2.38,13.48A73.23,73.23,0,0,1,156.57,119.94Z"/><path class="cls-1" d="M126.4,39.29l-.54-.17h0Z"/><path class="cls-1" d="M145.79,136.32l-.74.68a62.66,62.66,0,0,0,5.37-5.44A50,50,0,0,1,145.79,136.32Z"/><path class="cls-1" d="M122,149.34a58.54,58.54,0,0,1-15.4,2.16,57.34,57.34,0,0,1-19.13-3.36A58.47,58.47,0,0,0,122,149.34Z"/><path class="cls-1" d="M144.54,135.12c-.77.7-1.59,1.36-2.43,2s-1.69,1.25-2.55,1.86c.85-.62,1.72-1.22,2.52-1.91s1.64-1.32,2.41-2C144.21,135.32,144.49,135.13,144.54,135.12Z"/><path class="cls-1" d="M158.6,119.37l-.73,1.38c.64-1.17,1.16-2.4,1.72-3.61Z"/><path class="cls-1" d="M125.31,146.35c.74-.23,1.45-.53,2.17-.81s1.44-.56,2.13-.89c-.82.42-1.66.75-2.49,1.13C126.64,145.92,126,146.14,125.31,146.35Z"/><path class="cls-1" d="M101.64,149.43c-1-.11-2.09-.23-3.11-.36s-2-.31-3-.52a55,55,0,0,0,7.37.91C102.35,149.46,101.91,149.45,101.64,149.43Z"/><polygon class="cls-1" points="131.34 60.4 131.34 61.56 140.03 61.56 123.02 130.38 121.43 130.38 103.22 56.82 109.34 56.82 123.01 111.25 124 110.45 110.24 55.67 102.93 55.67 83.9 55.67 83 55.67 64.97 128.58 56 128.58 56 129.74 74.85 129.74 74.85 128.58 66.17 128.58 69.65 114.49 84.63 114.49 84.63 113.34 69.93 113.34 83.02 60.4 83.02 60.4 84.63 60.4 102.93 133.32 96.86 133.32 83.18 78.89 82.19 79.69 95.96 134.47 123.2 134.47 141.22 61.56 150.19 61.56 150.19 60.4 131.34 60.4"/><path class="cls-1" d="M30.16,159.27l3.4,7.71h.74v.24h-4V167H31l-1-2.33H27.13l-1,2.33h.95v.24H25V167h.82l2.57-5.82.84-1.89Zm-2.93,5.14h2.62l-1.31-2.95Z"/><path class="cls-1" d="M47.42,159.27v3h-.26a3,3,0,0,0-.57-2,2.46,2.46,0,0,0-2-.74H43.34v3.88H44a1.49,1.49,0,0,0,1.14-.38.94.94,0,0,0,.2-.35,1.34,1.34,0,0,0,0-.35h.26v2.39h-.26a1,1,0,0,0-.26-.7,1.44,1.44,0,0,0-1.13-.38h-.68V167h.74v.24H40.32V167h.73v-7.47h-.73v-.24Z"/><path class="cls-1" d="M62.47,165.82c.09.7-.08,1.17-.5,1.4a2.09,2.09,0,0,1-1,.26,2.24,2.24,0,0,1-2.26-1.69c-.11-.28-.18-.47-.23-.57a3.86,3.86,0,0,0-.38-.64,1.64,1.64,0,0,0-1.25-.74h-.39V167h.73v.24H53.44V167h.73v-7.47h-.73v-.24h4.84a7,7,0,0,1,1.07.08,4,4,0,0,1,1.09.32,1.94,1.94,0,0,1,1.16,1.88c0,1.17-.91,1.89-2.71,2.17a2.17,2.17,0,0,1,2.2,1.78c.08.34.13.56.16.66.1.31.22.48.35.53a.38.38,0,0,0,.33,0,.57.57,0,0,0,.28-.38,1.47,1.47,0,0,0,0-.49Zm-6-6.29v4h.88a2.09,2.09,0,0,0,1.42-.62,2.05,2.05,0,0,0,.47-1.39,2,2,0,0,0-.54-1.46,1.86,1.86,0,0,0-1.37-.57Z"/><path class="cls-1" d="M72.44,159.27v.24h-.73V167h.73v.24H68.68V167h.73v-7.47h-.73v-.24Z"/><path class="cls-1" d="M86.45,159.27h.23v2.41h-.19l0-.09a3.94,3.94,0,0,0-.76-1.1h0A3.65,3.65,0,0,0,83,159.35a.6.6,0,0,0-.22,0,.85.85,0,0,0-.22.09,1.32,1.32,0,0,0-.26.22,4.7,4.7,0,0,0-.69,3v1a7,7,0,0,0,.39,2.78,1.15,1.15,0,0,0,1.11.7h0a2.94,2.94,0,0,0,1.16-.29,4,4,0,0,0,1.22-.85,3.79,3.79,0,0,0,.8-1.18l.2.13a4.21,4.21,0,0,1-1.42,1.72,3.45,3.45,0,0,1-2,.7h-.51a3.9,3.9,0,0,1-2.88-1.21,4.13,4.13,0,0,1,0-5.84,3.9,3.9,0,0,1,2.88-1.21h.51a3.57,3.57,0,0,1,1.37.28,3.62,3.62,0,0,1,1.2.72h0l.06.06.07.06a.69.69,0,0,0,.36.16.28.28,0,0,0,.18-.06.27.27,0,0,0,.1-.13.65.65,0,0,0,0-.19Z"/><path class="cls-1" d="M97.84,159.27l3.4,7.71H102v.24h-4V167h.73l-1-2.33H94.81l-1,2.33h1v.24h-2V167h.82l2.57-5.82.84-1.89Zm-2.93,5.14h2.62l-1.31-2.95Z"/><path class="cls-1" d="M125.19,159.27v.24h-.81l-2.58,5.82-.83,1.89h-.91l-3.4-7.71h-.74v-.24h4v.24h-.74l2.44,5.52,2.45-5.52h-1v-.24Z"/><path class="cls-1" d="M135.82,159.13a3.9,3.9,0,0,1,2.87,1.22,4.12,4.12,0,0,1,0,5.83,3.89,3.89,0,0,1-2.87,1.21h-.52a3.9,3.9,0,0,1-2.88-1.21,4.12,4.12,0,0,1,0-5.83,3.91,3.91,0,0,1,2.88-1.22Zm1.42,3.75a5.61,5.61,0,0,0-.49-2.69,1.28,1.28,0,0,0-2.38,0,5.49,5.49,0,0,0-.49,2.69v.77a5.51,5.51,0,0,0,.49,2.69,1.28,1.28,0,0,0,2.38,0,5.63,5.63,0,0,0,.49-2.69Z"/><path class="cls-1" d="M154.32,159.27v3h-.26a3,3,0,0,0-.57-2,2.45,2.45,0,0,0-2-.74h-.23V167H152v.24h-3.77V167H149v-7.47h-.24a2.45,2.45,0,0,0-2,.74,3,3,0,0,0-.57,2h-.26v-3Z"/><path class="cls-1" d="M167.44,159.27v3h-.26a3,3,0,0,0-.57-2,2.45,2.45,0,0,0-2-.74h-1.25v3.62h.68a1.51,1.51,0,0,0,1.14-.38,1.1,1.1,0,0,0,.2-.35,1.34,1.34,0,0,0,.05-.35h.26v2.39h-.26a1,1,0,0,0-.26-.7,1.46,1.46,0,0,0-1.13-.38h-.68V167h1.25a2.45,2.45,0,0,0,2-.75,3,3,0,0,0,.57-2h.26v3h-7.1V167h.74v-7.47h-.74v-.24Z"/><path class="cls-1" d="M179.41,162.7l.22.14.23.13c.18.11.32.21.44.3a2.22,2.22,0,0,1,.69.79,2.24,2.24,0,0,1,.11,1.47,2.12,2.12,0,0,1-.81,1.24,3.8,3.8,0,0,1-2.37.61,4.81,4.81,0,0,1-2.35-.64l-.19-.11-.19-.09a.64.64,0,0,0-.4-.06c-.3,0-.43.25-.4.74h-.26v-2.68h.26a3.3,3.3,0,0,0,1.59,2.08,3.49,3.49,0,0,0,1.67.39,1.21,1.21,0,0,0,.66-.18.85.85,0,0,0,.4-.55,1.2,1.2,0,0,0-.08-.85,2.38,2.38,0,0,0-1-.94,5.55,5.55,0,0,0-.62-.33l-.31-.15-.29-.14a9.21,9.21,0,0,1-.82-.44,4.37,4.37,0,0,1-.79-.58,1.73,1.73,0,0,1-.61-1.67,2.29,2.29,0,0,1,1.39-1.56,4.76,4.76,0,0,1,2.11-.46,5.24,5.24,0,0,1,2.34.61l.1.05,0,0,.05,0,.13.07c.23.1.37.06.43-.1a3.16,3.16,0,0,0,.05-.59h.26v2.35h-.26a2,2,0,0,0-.24-.84,1.86,1.86,0,0,0-.83-.81,4.55,4.55,0,0,0-1.92-.52,1.68,1.68,0,0,0-1.22.5.7.7,0,0,0-.21.64,1,1,0,0,0,.35.61,3.34,3.34,0,0,0,.52.37l.28.15.29.15Q178.89,162.39,179.41,162.7Z"/></svg>